<?xml version="1.0" encoding="utf-8"?>
<!-- Generator: Adobe Illustrator 19.0.0, SVG Export Plug-In . SVG Version: 6.00 Build 0)  -->
<svg version="1.1" id="圖層_1" xmlns="http://www.w3.org/2000/svg" xmlns:xlink="http://www.w3.org/1999/xlink" x="0px" y="0px"
	 viewBox="0 0 271.4 271.4" style="enable-background:new 0 0 271.4 271.4;" xml:space="preserve">
<style type="text/css">
	.st0{fill:none;}
	.st1{fill:#FFFFFF;}
</style>
<g>
	<rect x="216.4" y="219.6" class="st0" width="29.6" height="30.7"/>
	<polygon class="st0" points="75.5,227.7 56,253.8 99.2,253.8 79.7,227.7 	"/>
	<rect x="159.4" y="219.6" class="st0" width="29.6" height="30.7"/>
	<polygon class="st0" points="200.7,154.5 179.7,175.1 201.9,196.9 222.8,176.2 	"/>
	<rect x="188.6" y="31.8" class="st0" width="32" height="38.2"/>
	<rect x="95" y="158.4" class="st1" width="6.2" height="28"/>
	<polygon class="st1" points="84.4,179.6 84.4,173.5 56.3,173.5 56.3,164.4 78.6,164.4 78.6,158.4 56.3,158.4 56.3,145.6 
		50.2,145.6 50.2,158.4 32.4,158.4 32.4,145.6 26.3,145.6 26.3,158.4 26.3,161.7 26.3,164.4 50.2,164.4 50.2,173.5 19.8,173.5 
		19.8,179.6 50.2,179.6 50.2,190.1 32.4,190.1 26.3,190.1 26.3,196.2 26.3,212.1 32.4,212.1 32.4,196.2 50.2,196.2 50.2,212.1 
		56.3,212.1 56.3,196.2 73.2,196.2 73.2,212.1 78.6,212.1 78.6,190.1 73.2,190.1 73.2,190.1 56.3,190.1 56.3,179.6 	"/>
	<polygon class="st1" points="92.2,212.1 117.5,212.1 123.6,212.1 123.6,206.1 123.6,145.6 117.5,145.6 117.5,206.1 92.2,206.1 	"/>
	<path class="st1" d="M77.6,215.6l-4.6,6.1H18.4v6h50l-23.7,31.6h65.6l-23.7-31.6h50v-6H82.2L77.6,215.6z M99.2,253.8H56l19.5-26
		h4.1L99.2,253.8z"/>
	<path class="st1" d="M152.3,257.3h43.8v-44.7h-43.8V257.3z M159.4,219.6H189v30.7h-29.6V219.6z"/>
	<path class="st1" d="M209.3,257.3h43.8v-44.7h-43.8V257.3z M216.4,219.6H246v30.7h-29.6V219.6z"/>
	<path class="st1" d="M200.7,144.6l-31,30.5l32.2,31.6l31-30.5L200.7,144.6z M201.9,196.9l-22.2-21.7l20.9-20.6l22.2,21.7
		L201.9,196.9z"/>
	<path class="st1" d="M264.7,89.9h-57.1V76.2h13.1v0h6.2V55.6l30.3,17.3V64l-22.7-12.8l22.7-13.1v-8.8l-30.3,17.2V25.2H225h-4.4
		h-13.1v-13h-6.1v13h-12.8h-4.7h-0.7v21.4l-29.6-17.3v8.8l21.9,13.1L153.6,64v8.9l29.6-17.4v20.7h5.5v0h12.8v13.7h-55v7.1h30.7
		l-22.8,22l4.1,6.3l29.2-28.2h13.7v30.6h6.2V96.9h13.9l29.2,28.2l4.1-6.3l-22.7-22h32.6V89.9z M188.6,70V31.8h32V70H188.6z"/>
	<polygon class="st1" points="110.9,102.2 95.6,102.2 95.6,108.4 117.1,108.4 117.1,102.2 117.1,102.2 117.1,73.9 124.7,73.9 
		124.7,67.7 117.1,67.7 117.1,50.7 124.7,50.7 124.7,44.5 83.5,44.5 83.5,50.7 110.9,50.7 110.9,67.7 83.5,67.7 83.5,73.9 
		110.9,73.9 	"/>
	<rect x="6.8" y="48.8" class="st1" width="22.7" height="6.1"/>
	<polygon class="st1" points="15.3,118.1 15.3,124.2 23.4,124.2 29.5,124.2 124.7,124.2 124.7,118.1 29.5,118.1 29.5,72.4 
		29.5,72.4 23.4,72.4 6.8,72.4 6.8,78.2 23.4,78.2 23.4,118.1 	"/>
	<polygon class="st1" points="89.6,32.2 124.7,32.2 124.7,26 89.6,26 89.6,12.5 83.5,12.5 83.5,38.3 89.6,38.3 	"/>
	<polygon class="st1" points="44.2,43.6 44.2,49.7 44.2,82.9 50.4,82.9 50.4,49.7 71.7,49.7 71.7,102.2 44.2,102.2 44.2,108.4 
		77.8,108.4 77.8,108.4 77.8,102.2 77.8,49.7 77.8,43.6 71.7,43.6 50.4,43.6 50.4,32.7 76.9,32.7 76.9,26.5 65,26.5 65,13.1 
		58.9,13.1 58.9,26.5 32.9,26.5 32.9,32.7 44.2,32.7 	"/>
</g>
</svg>
