<?xml version="1.0" encoding="utf-8"?>
<!-- Generator: Adobe Illustrator 19.0.0, SVG Export Plug-In . SVG Version: 6.00 Build 0)  -->
<svg version="1.1" xmlns="http://www.w3.org/2000/svg" xmlns:xlink="http://www.w3.org/1999/xlink" x="0px" y="0px"
	 viewBox="0 0 283 100.3" style="enable-background:new 0 0 283 100.3;" xml:space="preserve">
<style type="text/css">
	.st0{display:none;}
	.st1{display:inline;}
	.st2{fill:#FFFFFF;}
	.st3{fill:none;}
</style>
<g id="圖層_2" class="st0">
	<rect y="0.3" class="st1" width="283" height="100"/>
</g>
<g id="圖層_1">
	<g>
		<path class="st2" d="M23.2,74.4c-3.5,0-6.3,1.1-8.4,3.4c-2.1,2.2-3.1,5.2-3.1,9c0,3.7,1.1,6.7,3.2,9c2.1,2.2,4.9,3.4,8.3,3.4
			c2.7,0,5.2-0.7,7.5-2.2l0.7,1.5c-2.4,1.6-5.1,2.4-8.3,2.4c-4,0-7.2-1.3-9.7-3.8C11,94.3,9.8,91,9.8,86.7c0-4.3,1.2-7.7,3.6-10.2
			c2.4-2.5,5.6-3.8,9.7-3.8c3.2,0,5.9,0.8,8.3,2.4l-0.7,1.5C28.5,75.1,26,74.4,23.2,74.4z"/>
		<path class="st2" d="M38.8,72.4V85h0.1c0.7-1.4,1.7-2.4,2.8-3.2c1.2-0.8,2.5-1.2,3.9-1.2c2.3,0,3.9,0.7,5,2
			c1.1,1.3,1.6,3.4,1.6,6.3v11.4h-1.7V89c0-2.5-0.4-4.3-1.2-5.4c-0.8-1-2.2-1.6-4.1-1.6c-1.6,0-3.1,0.8-4.4,2.3
			c-1.3,1.6-2,3.4-2,5.5v10.3H37V72.4H38.8z"/>
		<path class="st2" d="M59.4,76.5v-4.1h1.8v4.1H59.4z M59.4,100.3V80.9h1.8v19.4H59.4z"/>
		<path class="st2" d="M69.6,100.3V72.4h1.8v27.9H69.6z"/>
		<path class="st2" d="M79.8,100.3V72.4h1.8v27.9H79.8z"/>
		<path class="st2" d="M89.5,73.3c2.2-0.4,4.6-0.6,7-0.6c3.3,0,5.8,0.7,7.6,2.1c1.7,1.4,2.6,3.4,2.6,6c0,2.7-0.9,4.8-2.6,6.3
			c-1.8,1.5-4.3,2.2-7.5,2.2c-1.7,0-3.4-0.1-5.1-0.3v11.2h-1.9V73.3z M91.4,87.5c1.6,0.2,3.2,0.3,5,0.3c2.7,0,4.8-0.6,6.3-1.8
			c1.5-1.2,2.2-2.9,2.2-5s-0.7-3.8-2.2-5c-1.4-1.1-3.5-1.7-6.3-1.7c-1.7,0-3.3,0.1-5,0.4V87.5z"/>
		<path class="st2" d="M112.3,80.9v4.6h0.1c1-1.6,2.3-2.8,4-3.6c1.7-0.9,3.5-1.3,5.7-1.3v1.5c-2.8,0-5.1,0.8-6.9,2.4
			c-1.8,1.6-2.8,3.5-2.8,5.9v9.9h-1.8V80.9H112.3z"/>
		<path class="st2" d="M140.4,98c-1.6,1.8-3.8,2.7-6.5,2.7c-2.7,0-4.9-0.9-6.5-2.7c-1.6-1.8-2.4-4.3-2.4-7.3s0.8-5.5,2.4-7.3
			c1.6-1.8,3.8-2.7,6.5-2.7c2.7,0,4.9,0.9,6.5,2.7c1.6,1.8,2.4,4.3,2.4,7.3S142,96.1,140.4,98z M139.2,84.3c-1.3-1.5-3-2.3-5.3-2.3
			s-4,0.8-5.3,2.3c-1.3,1.5-1.9,3.6-1.9,6.3s0.6,4.7,1.9,6.3c1.3,1.5,3,2.3,5.3,2.3s4-0.8,5.3-2.3c1.3-1.5,1.9-3.6,1.9-6.3
			S140.5,85.9,139.2,84.3z"/>
		<path class="st2" d="M148.7,98c-1.4-1.8-2.1-4.2-2.1-7.4s0.7-5.6,2.1-7.4c1.4-1.8,3.3-2.6,5.7-2.6c3.1,0,5.3,1.4,6.6,4.1h0.1V72.4
			h1.8v27.9h-1.7l0-3.8h-0.1c-1.3,2.8-3.5,4.1-6.7,4.1C152,100.7,150.1,99.8,148.7,98z M150,84.3c-1.1,1.5-1.7,3.6-1.7,6.3
			s0.6,4.8,1.7,6.3c1.1,1.5,2.7,2.3,4.7,2.3c1.9,0,3.4-0.7,4.6-2.2c1.2-1.4,1.8-3.5,1.8-6.1v-0.6c0-2.6-0.6-4.6-1.8-6.1
			c-1.2-1.5-2.7-2.2-4.6-2.2C152.7,82.1,151.2,82.8,150,84.3z"/>
		<path class="st2" d="M170.4,80.9v12.2c0,2.2,0.4,3.8,1.1,4.7c0.7,0.9,2,1.4,3.8,1.4c1.6,0,3.1-0.8,4.4-2.3c1.3-1.6,2-3.4,2-5.6
			V80.9h1.8v19.4h-1.7l0-4.1h-0.1c-0.7,1.4-1.6,2.5-2.8,3.3c-1.2,0.8-2.5,1.2-4,1.2c-2.2,0-3.7-0.6-4.7-1.8c-1-1.2-1.5-3.1-1.5-5.7
			V80.9H170.4z"/>
		<path class="st2" d="M197.5,82.1c-2.4,0-4.3,0.8-5.7,2.3s-2.1,3.6-2.1,6.3c0,2.6,0.7,4.7,2.2,6.2c1.4,1.6,3.3,2.3,5.6,2.3
			c1.7,0,3.4-0.4,4.9-1.2l0.5,1.4c-1.7,0.9-3.6,1.3-5.5,1.3c-2.8,0-5.1-0.9-6.9-2.8c-1.8-1.8-2.6-4.3-2.6-7.3c0-3.1,0.8-5.6,2.5-7.4
			c1.7-1.8,4-2.7,7-2.7c1.9,0,3.8,0.4,5.5,1.3l-0.5,1.5C200.8,82.5,199.2,82.1,197.5,82.1z"/>
		<path class="st2" d="M213.6,74.6v7.1h7.7v1.5h-7.7v11.4c0,1.9,0.3,3.1,0.8,3.7c0.5,0.6,1.6,0.9,3,0.9c1.2,0,2.2-0.2,3.2-0.6
			l0.4,1.4c-1.2,0.4-2.4,0.6-3.7,0.6c-2,0-3.4-0.4-4.2-1.3s-1.2-2.4-1.2-4.6V83.2h-4.5v-1.5h4.5v-7.1H213.6z"/>
		<path class="st2" d="M228.8,76.5v-4.1h1.8v4.1H228.8z M228.8,100.3V80.9h1.8v19.4H228.8z"/>
		<path class="st2" d="M252.2,98c-1.6,1.8-3.8,2.7-6.5,2.7c-2.7,0-4.9-0.9-6.5-2.7c-1.6-1.8-2.4-4.3-2.4-7.3s0.8-5.5,2.4-7.3
			c1.6-1.8,3.8-2.7,6.5-2.7c2.7,0,4.9,0.9,6.5,2.7c1.6,1.8,2.4,4.3,2.4,7.3S253.8,96.1,252.2,98z M250.9,84.3
			c-1.3-1.5-3-2.3-5.3-2.3s-4,0.8-5.3,2.3c-1.3,1.5-1.9,3.6-1.9,6.3s0.6,4.7,1.9,6.3c1.3,1.5,3,2.3,5.3,2.3s4-0.8,5.3-2.3
			c1.3-1.5,1.9-3.6,1.9-6.3S252.2,85.9,250.9,84.3z"/>
		<path class="st2" d="M267.3,82.1c-1.6,0-3.1,0.8-4.4,2.3c-1.3,1.6-2,3.4-2,5.5v10.3h-1.8V80.9h1.7l0,4.1h0.1
			c0.7-1.4,1.6-2.5,2.8-3.3c1.2-0.8,2.5-1.2,4-1.2c2.3,0,3.9,0.7,5,2c1.1,1.3,1.6,3.4,1.6,6.3v11.4h-1.7V89c0-2.5-0.4-4.3-1.2-5.4
			C270.6,82.6,269.2,82.1,267.3,82.1z"/>
	</g>
	<g>
		<g>
			<g>
				<rect x="257.3" y="39.7" class="st3" width="15.6" height="16.1"/>
			</g>
			<g>
				<polygon class="st3" points="183.2,44 173,57.7 195.7,57.7 185.4,44 				"/>
			</g>
			<g>
				<rect x="227.3" y="39.7" class="st3" width="15.6" height="16.1"/>
			</g>
			<g>
				<polygon class="st3" points="249,5.5 238,16.3 249.7,27.8 260.7,16.9 				"/>
			</g>
			<g>
				<rect x="193.5" y="7.5" class="st2" width="3.2" height="14.7"/>
			</g>
			<g>
				<polygon class="st2" points="187.9,18.7 187.9,15.5 173.1,15.5 173.1,10.7 184.8,10.7 184.8,7.5 173.1,7.5 173.1,0.8 169.9,0.8 
					169.9,7.5 160.6,7.5 160.6,0.8 157.3,0.8 157.3,7.5 157.3,9.3 157.3,10.7 169.9,10.7 169.9,15.5 153.9,15.5 153.9,18.7 
					169.9,18.7 169.9,24.2 160.6,24.2 157.3,24.2 157.3,27.4 157.3,35.8 160.6,35.8 160.6,27.4 169.9,27.4 169.9,35.8 173.1,35.8 
					173.1,27.4 182,27.4 182,35.8 184.8,35.8 184.8,24.2 182,24.2 182,24.2 173.1,24.2 173.1,18.7 				"/>
			</g>
			<g>
				<polygon class="st2" points="192,35.8 205.3,35.8 208.5,35.8 208.5,32.6 208.5,0.8 205.3,0.8 205.3,32.6 192,32.6 				"/>
			</g>
			<g>
				<path class="st2" d="M184.3,37.6l-2.4,3.2h-28.7V44h26.3l-12.5,16.6h34.5L189.1,44h26.3v-3.2h-28.7L184.3,37.6z M195.7,57.7H173
					L183.2,44h2.2L195.7,57.7z"/>
			</g>
			<g>
				<path class="st2" d="M223.6,59.5h23.1V36.1h-23.1V59.5z M227.3,39.7h15.6v16.1h-15.6V39.7z"/>
			</g>
			<g>
				<path class="st2" d="M253.6,59.5h23.1V36.1h-23.1V59.5z M257.3,39.7h15.6v16.1h-15.6V39.7z"/>
			</g>
			<g>
				<path class="st2" d="M249,0.3l-16.3,16.1L249.7,33L266,16.9L249,0.3z M249.7,27.8L238,16.3l11-10.9l11.7,11.4L249.7,27.8z"/>
			</g>
		</g>
		<g>
			<g>
				<rect x="103.8" y="10.3" class="st3" width="16.8" height="20.1"/>
			</g>
			<g>
				<path class="st2" d="M143.8,40.9h-30v-7.2h6.9v0h3.2V22.8l16,9.1v-4.7l-11.9-6.7l11.9-6.9V9l-16,9V6.8H123h-2.3h-6.9V0h-3.2v6.8
					h-6.7h-2.5h-0.4v11.3L85.4,9v4.6l11.5,6.9l-11.5,6.7v4.7l15.6-9.2v10.9h2.9v0h6.7v7.2H81.6v3.7h16.1l-12,11.6l2.2,3.3l15.4-14.9
					h7.2v16.1h3.2V44.6h7.3l15.4,14.9l2.2-3.3l-12-11.6h17.1V40.9z M103.8,30.4V10.3h16.8v20.1H103.8z"/>
			</g>
			<g>
				<polygon class="st2" points="63,47.4 54.9,47.4 54.9,50.6 66.2,50.6 66.2,47.4 66.2,47.4 66.2,32.4 70.2,32.4 70.2,29.2 
					66.2,29.2 66.2,20.2 70.2,20.2 70.2,17 48.5,17 48.5,20.2 63,20.2 63,29.2 48.5,29.2 48.5,32.4 63,32.4 				"/>
			</g>
			<g>
				<rect x="8.2" y="19.2" class="st2" width="11.9" height="3.2"/>
			</g>
			<g>
				<polygon class="st2" points="12.7,55.7 12.7,58.9 16.9,58.9 20.2,58.9 70.2,58.9 70.2,55.7 20.2,55.7 20.2,31.7 20.1,31.7 
					16.9,31.7 8.2,31.7 8.2,34.7 16.9,34.7 16.9,55.7 				"/>
			</g>
			<g>
				<polygon class="st2" points="51.8,10.5 70.2,10.5 70.2,7.3 51.8,7.3 51.8,0.2 48.5,0.2 48.5,13.8 51.8,13.8 				"/>
			</g>
			<g>
				<polygon class="st2" points="27.9,16.5 27.9,19.7 27.9,37.2 31.1,37.2 31.1,19.7 42.3,19.7 42.3,47.4 27.9,47.4 27.9,50.6 
					45.5,50.6 45.5,50.6 45.5,47.4 45.5,19.7 45.5,16.5 42.3,16.5 31.1,16.5 31.1,10.8 45,10.8 45,7.5 38.8,7.5 38.8,0.5 35.6,0.5 
					35.6,7.5 21.9,7.5 21.9,10.8 27.9,10.8 				"/>
			</g>
		</g>
	</g>
</g>
</svg>
