<?xml version="1.0" encoding="utf-8"?>
<!-- Generator: Adobe Illustrator 19.0.0, SVG Export Plug-In . SVG Version: 6.00 Build 0)  -->
<svg version="1.1" xmlns="http://www.w3.org/2000/svg" xmlns:xlink="http://www.w3.org/1999/xlink" x="0px" y="0px"
	 viewBox="0 0 791 72" style="enable-background:new 0 0 791 72;" xml:space="preserve">
<style type="text/css">
	.st0{fill:#FFFFFF;}
	.st1{fill:none;}
</style>
<g id="圖層_2">
</g>
<g id="圖層_1">
	<g>
		<path class="st0" d="M337.1,14.9c-6.2,0-11.2,2-14.8,5.9c-3.7,3.9-5.5,9.2-5.5,15.9c0,6.6,1.9,11.9,5.6,15.9
			c3.7,4,8.6,5.9,14.7,5.9c4.8,0,9.2-1.3,13.2-3.9l1.2,2.6c-4.2,2.8-9.1,4.2-14.7,4.2c-7.1,0-12.8-2.2-17.1-6.7
			c-4.3-4.5-6.4-10.5-6.4-17.9c0-7.6,2.1-13.6,6.3-18c4.2-4.4,9.9-6.6,17.1-6.6c5.6,0,10.5,1.4,14.7,4.2l-1.2,2.6
			C346.3,16.2,341.9,14.9,337.1,14.9z"/>
		<path class="st0" d="M364.6,11.4v22.3h0.1c1.3-2.4,2.9-4.3,5-5.7c2.1-1.4,4.4-2.1,6.9-2.1c4,0,6.9,1.2,8.8,3.5
			c1.9,2.3,2.8,6,2.8,11.2v20.2h-3V40.8c0-4.5-0.7-7.6-2.1-9.5c-1.4-1.8-3.8-2.8-7.3-2.8c-2.9,0-5.5,1.4-7.8,4.1
			c-2.3,2.8-3.5,6-3.5,9.8v18.2h-3.1V11.4H364.6z"/>
		<path class="st0" d="M401,18.6v-7.2h3.2v7.2H401z M401,60.7V26.5h3.2v34.2H401z"/>
		<path class="st0" d="M419.1,60.7V11.4h3.2v49.3H419.1z"/>
		<path class="st0" d="M437.1,60.7V11.4h3.2v49.3H437.1z"/>
		<path class="st0" d="M454.1,13.1c3.9-0.7,8-1.1,12.3-1.1c5.8,0,10.3,1.2,13.3,3.7c3.1,2.5,4.6,6,4.6,10.6c0,4.8-1.5,8.5-4.6,11.1
			c-3.1,2.6-7.5,3.9-13.3,3.9c-3,0-6-0.2-9-0.5v19.8h-3.3V13.1z M457.4,38.1c2.8,0.4,5.7,0.6,8.7,0.6c4.8,0,8.5-1,11.1-3.1
			c2.6-2.1,3.9-5.1,3.9-8.9c0-3.9-1.3-6.8-3.8-8.8c-2.5-2-6.3-3-11.2-3c-2.9,0-5.9,0.2-8.7,0.7V38.1z"/>
		<path class="st0" d="M494.3,26.5v8.1h0.1c1.8-2.8,4.1-4.9,7-6.4c2.9-1.5,6.3-2.3,10-2.3v2.7c-4.9,0-9,1.4-12.2,4.2
			c-3.2,2.8-4.9,6.3-4.9,10.4v17.6h-3.1V26.5H494.3z"/>
		<path class="st0" d="M544,56.6c-2.8,3.2-6.7,4.8-11.5,4.8s-8.7-1.6-11.5-4.8c-2.8-3.2-4.3-7.5-4.3-13c0-5.4,1.4-9.8,4.3-13
			c2.8-3.2,6.7-4.8,11.5-4.8s8.7,1.6,11.5,4.8c2.8,3.2,4.3,7.5,4.3,13C548.3,49.1,546.9,53.4,544,56.6z M541.8,32.5
			c-2.3-2.7-5.4-4-9.3-4c-3.9,0-7,1.3-9.3,4c-2.3,2.7-3.4,6.4-3.4,11.1c0,4.7,1.1,8.4,3.4,11.1c2.3,2.7,5.4,4,9.3,4
			c3.9,0,7-1.3,9.3-4c2.3-2.7,3.4-6.4,3.4-11.1C545.2,38.9,544.1,35.2,541.8,32.5z"/>
		<path class="st0" d="M558.7,56.7c-2.5-3.1-3.7-7.5-3.7-13.1c0-5.6,1.2-10,3.7-13.1c2.5-3.1,5.8-4.7,10.1-4.7
			c5.5,0,9.4,2.4,11.7,7.2h0.1V11.4h3.1v49.3h-3l-0.1-6.6h-0.1c-2.2,4.9-6.2,7.3-11.8,7.3C564.5,61.4,561.1,59.8,558.7,56.7z
			 M561,32.5c-2,2.7-3,6.4-3,11.1c0,4.8,1,8.5,3,11.1c2,2.7,4.8,4,8.3,4c3.3,0,6-1.3,8.2-3.8c2.1-2.5,3.2-6.1,3.2-10.8v-1.1
			c0-4.5-1-8.1-3.1-10.7c-2.1-2.6-4.8-3.9-8.2-3.9C565.8,28.5,563,29.8,561,32.5z"/>
		<path class="st0" d="M596.9,26.5V48c0,3.9,0.7,6.7,2,8.3c1.3,1.6,3.5,2.4,6.7,2.4c2.8,0,5.4-1.4,7.8-4.1c2.4-2.7,3.5-6,3.5-9.8
			V26.5h3.1v34.2h-3l-0.1-7.2h-0.1c-1.2,2.4-2.8,4.3-5,5.8c-2.1,1.4-4.5,2.1-7,2.1c-3.8,0-6.6-1-8.3-3.1c-1.8-2.1-2.6-5.4-2.6-10.1
			V26.5H596.9z"/>
		<path class="st0" d="M644.7,28.6c-4.3,0-7.7,1.3-10.1,4c-2.4,2.7-3.6,6.3-3.6,11.1c0,4.6,1.3,8.2,3.8,11c2.5,2.8,5.9,4.1,9.9,4.1
			c3,0,5.9-0.7,8.7-2.2l0.9,2.5c-3.1,1.5-6.3,2.3-9.7,2.3c-5,0-9-1.6-12.1-4.9c-3.1-3.2-4.6-7.5-4.6-12.9c0-5.5,1.5-9.9,4.5-13
			c3-3.2,7.1-4.7,12.3-4.7c3.4,0,6.7,0.8,9.7,2.3l-0.9,2.6C650.7,29.3,647.8,28.6,644.7,28.6z"/>
		<path class="st0" d="M673.3,15.4v12.5h13.5v2.6h-13.5v20.2c0,3.3,0.5,5.5,1.4,6.5c1,1.1,2.7,1.6,5.3,1.6c2.1,0,3.9-0.3,5.6-1
			l0.7,2.5c-2.1,0.7-4.3,1.1-6.6,1.1c-3.6,0-6-0.8-7.4-2.3c-1.4-1.5-2.1-4.2-2.1-8.1V30.5h-7.9v-2.6h7.9V15.4H673.3z"/>
		<path class="st0" d="M700,18.6v-7.2h3.2v7.2H700z M700,60.7V26.5h3.2v34.2H700z"/>
		<path class="st0" d="M741.4,56.6c-2.8,3.2-6.7,4.8-11.5,4.8s-8.7-1.6-11.5-4.8c-2.8-3.2-4.3-7.5-4.3-13c0-5.4,1.4-9.8,4.3-13
			c2.8-3.2,6.7-4.8,11.5-4.8s8.7,1.6,11.5,4.8c2.8,3.2,4.3,7.5,4.3,13C745.7,49.1,744.2,53.4,741.4,56.6z M739.1,32.5
			c-2.3-2.7-5.4-4-9.3-4c-3.9,0-7,1.3-9.3,4c-2.3,2.7-3.4,6.4-3.4,11.1c0,4.7,1.1,8.4,3.4,11.1c2.3,2.7,5.4,4,9.3,4
			c3.9,0,7-1.3,9.3-4c2.3-2.7,3.4-6.4,3.4-11.1C742.6,38.9,741.4,35.2,739.1,32.5z"/>
		<path class="st0" d="M767.9,28.6c-2.9,0-5.5,1.4-7.8,4.1s-3.5,6-3.5,9.8v18.2h-3.1V26.5h3l0.1,7.2h0.1c1.2-2.4,2.8-4.3,5-5.8
			c2.1-1.4,4.5-2.1,7-2.1c4,0,6.9,1.2,8.8,3.5c1.9,2.3,2.8,6,2.8,11.2v20.2h-3V40.8c0-4.5-0.7-7.6-2.1-9.5
			C773.8,29.5,771.4,28.6,767.9,28.6z"/>
	</g>
	<g>
		<g>
			<rect x="257.3" y="45.6" class="st1" width="15.6" height="16.1"/>
			<polygon class="st1" points="183.2,49.9 173,63.5 195.7,63.5 185.4,49.9 			"/>
			<rect x="227.3" y="45.6" class="st1" width="15.6" height="16.1"/>
			<polygon class="st1" points="249,11.3 238,22.2 249.7,33.6 260.7,22.8 			"/>
			<rect x="193.5" y="13.4" class="st0" width="3.2" height="14.7"/>
			<polygon class="st0" points="187.9,24.5 187.9,21.3 173.1,21.3 173.1,16.6 184.8,16.6 184.8,13.4 173.1,13.4 173.1,6.7 
				169.9,6.7 169.9,13.4 160.6,13.4 160.6,6.7 157.3,6.7 157.3,13.4 157.3,15.2 157.3,16.6 169.9,16.6 169.9,21.3 153.9,21.3 
				153.9,24.5 169.9,24.5 169.9,30.1 160.6,30.1 157.3,30.1 157.3,33.3 157.3,41.6 160.6,41.6 160.6,33.3 169.9,33.3 169.9,41.6 
				173.1,41.6 173.1,33.3 182,33.3 182,41.6 184.8,41.6 184.8,30.1 182,30.1 182,30.1 173.1,30.1 173.1,24.5 			"/>
			<polygon class="st0" points="192,41.6 205.3,41.6 208.5,41.6 208.5,38.5 208.5,6.7 205.3,6.7 205.3,38.5 192,38.5 			"/>
			<path class="st0" d="M184.3,43.5l-2.4,3.2h-28.7v3.2h26.3l-12.5,16.6h34.5l-12.5-16.6h26.3v-3.2h-28.7L184.3,43.5z M195.7,63.5
				H173l10.3-13.7h2.2L195.7,63.5z"/>
			<path class="st0" d="M223.6,65.4h23.1V41.9h-23.1V65.4z M227.3,45.6h15.6v16.1h-15.6V45.6z"/>
			<path class="st0" d="M253.6,65.4h23.1V41.9h-23.1V65.4z M257.3,45.6h15.6v16.1h-15.6V45.6z"/>
			<path class="st0" d="M249,6.1l-16.3,16.1l16.9,16.6L266,22.8L249,6.1z M249.7,33.6L238,22.2l11-10.9l11.7,11.4L249.7,33.6z"/>
		</g>
		<g>
			<rect x="103.8" y="16.2" class="st1" width="16.8" height="20.1"/>
			<path class="st0" d="M143.8,46.7h-30v-7.2h6.9v0h3.2V28.7l16,9.1v-4.7l-11.9-6.7l11.9-6.9v-4.6l-16,9V12.7H123h-2.3h-6.9V5.8
				h-3.2v6.8h-6.7h-2.5h-0.4v11.3l-15.6-9.1v4.6l11.5,6.9l-11.5,6.7v4.7l15.6-9.2v10.9h2.9v0h6.7v7.2H81.6v3.7h16.1L85.8,62l2.2,3.3
				l15.4-14.9h7.2v16.1h3.2V50.4h7.3l15.4,14.9l2.2-3.3l-12-11.6h17.1V46.7z M103.8,36.3V16.2h16.8v20.1H103.8z"/>
			<polygon class="st0" points="63,53.2 54.9,53.2 54.9,56.4 66.2,56.4 66.2,53.2 66.2,53.2 66.2,38.3 70.2,38.3 70.2,35 66.2,35 
				66.2,26.1 70.2,26.1 70.2,22.8 48.5,22.8 48.5,26.1 63,26.1 63,35 48.5,35 48.5,38.3 63,38.3 			"/>
			<rect x="8.2" y="25.1" class="st0" width="11.9" height="3.2"/>
			<polygon class="st0" points="12.7,61.5 12.7,64.8 16.9,64.8 20.2,64.8 70.2,64.8 70.2,61.5 20.2,61.5 20.2,37.5 20.1,37.5 
				16.9,37.5 8.2,37.5 8.2,40.5 16.9,40.5 16.9,61.5 			"/>
			<polygon class="st0" points="51.8,16.4 70.2,16.4 70.2,13.1 51.8,13.1 51.8,6 48.5,6 48.5,19.6 51.8,19.6 			"/>
			<polygon class="st0" points="27.9,22.3 27.9,25.6 27.9,43 31.1,43 31.1,25.6 42.3,25.6 42.3,53.2 27.9,53.2 27.9,56.4 45.5,56.4 
				45.5,56.4 45.5,53.2 45.5,25.6 45.5,22.3 42.3,22.3 31.1,22.3 31.1,16.6 45,16.6 45,13.4 38.8,13.4 38.8,6.3 35.6,6.3 35.6,13.4 
				21.9,13.4 21.9,16.6 27.9,16.6 			"/>
		</g>
	</g>
</g>
</svg>
